<?xml version="1.0" encoding="utf-8"?>
<!-- Generator: Adobe Illustrator 16.2.1, SVG Export Plug-In . SVG Version: 6.00 Build 0)  -->
<!DOCTYPE svg PUBLIC "-//W3C//DTD SVG 1.1//EN" "http://www.w3.org/Graphics/SVG/1.1/DTD/svg11.dtd">
<svg version="1.1" id="Layer_1" xmlns="http://www.w3.org/2000/svg" xmlns:xlink="http://www.w3.org/1999/xlink" x="0px" y="0px"
	 width="1605.161px" height="405.851px" viewBox="0 0 1605.161 405.851" enable-background="new 0 0 1605.161 405.851"
	 xml:space="preserve">
<g>
	<path fill="none" d="M195.421,77.124c-2.952-3.184-6.452-5.605-10.497-7.264c-4.047-1.657-8.425-2.488-13.134-2.488
		c-5.572,0-10.564,0.896-14.975,2.687c-4.412,1.791-8.208,4.313-11.393,7.562c-3.184,3.251-5.755,7.164-7.711,11.741
		c-1.958,4.578-3.234,9.65-3.831,15.225h71.043c0-5.902-0.846-11.161-2.538-15.771C200.694,84.206,198.373,80.308,195.421,77.124z"
		/>
	<path fill="none" d="M298.502,77.124c-2.953-3.184-6.453-5.605-10.498-7.264c-4.047-1.657-8.425-2.488-13.134-2.488
		c-5.571,0-10.563,0.896-14.975,2.687c-4.412,1.791-8.208,4.313-11.394,7.562c-3.184,3.251-5.755,7.164-7.711,11.741
		c-1.957,4.578-3.234,9.65-3.83,15.225h71.043c0-5.902-0.847-11.161-2.539-15.771C303.775,84.206,301.452,80.308,298.502,77.124z"/>
	<path fill="#121423" d="M198.655,74.387c-3.45-3.615-7.479-6.351-12.089-8.209c-4.611-1.856-9.569-2.786-14.875-2.786
		c-6.833,0-12.935,1.194-18.308,3.582c-5.373,2.388-9.917,5.739-13.632,10.05c-3.715,4.312-6.551,9.437-8.507,15.373
		c-1.958,5.938-2.936,12.487-2.936,19.651c0,8.293,1.028,15.672,3.084,22.141c2.056,6.467,4.991,11.924,8.806,16.365
		c3.814,4.445,8.423,7.846,13.831,10.199c5.406,2.355,11.458,3.533,18.159,3.533c3.781,0,7.478-0.383,11.094-1.145
		c3.615-0.764,6.965-1.758,10.05-2.986c3.084-1.227,5.821-2.637,8.208-4.229c2.388-1.592,4.245-3.217,5.572-4.875l-1.293-1.492
		c-0.333-0.398-0.764-0.598-1.293-0.598c-0.398,0-1.311,0.58-2.736,1.74c-1.427,1.162-3.433,2.439-6.02,3.832
		c-2.587,1.393-5.805,2.67-9.651,3.83c-3.848,1.162-8.392,1.74-13.631,1.74c-5.905,0-11.261-1.043-16.069-3.135
		c-4.81-2.09-8.905-5.156-12.288-9.203c-3.383-4.045-6.004-9.055-7.861-15.023c-1.858-5.971-2.786-12.869-2.786-20.695
		c0-0.662,0-1.326,0-1.99c0-0.662,0.032-1.326,0.099-1.99h74.327c1.194,0,1.791-0.697,1.791-2.09c0-6.83-0.979-12.9-2.935-18.208
		C204.807,82.463,202.104,78.003,198.655,74.387z M133.881,104.586c0.597-5.572,1.873-10.647,3.831-15.225
		c1.956-4.577,4.527-8.49,7.711-11.741c3.184-3.249,6.98-5.771,11.393-7.562c4.411-1.791,9.403-2.687,14.975-2.687
		c4.709,0,9.087,0.831,13.134,2.488c4.045,1.659,7.545,4.08,10.497,7.264c2.951,3.184,5.273,7.082,6.965,11.691
		c1.692,4.611,2.538,9.869,2.538,15.771H133.881z"/>
	<path fill="#121423" d="M301.735,74.387c-3.45-3.615-7.479-6.351-12.089-8.209c-4.611-1.856-9.569-2.786-14.875-2.786
		c-6.833,0-12.936,1.194-18.309,3.582c-5.373,2.388-9.916,5.739-13.631,10.05c-3.716,4.312-6.552,9.437-8.508,15.373
		c-1.958,5.938-2.936,12.487-2.936,19.651c0,8.293,1.027,15.672,3.084,22.141c2.056,6.467,4.99,11.924,8.806,16.365
		c3.813,4.445,8.423,7.846,13.831,10.199c5.406,2.355,11.458,3.533,18.159,3.533c3.78,0,7.478-0.383,11.094-1.145
		c3.615-0.764,6.965-1.758,10.05-2.986c3.084-1.227,5.821-2.637,8.208-4.229c2.388-1.592,4.245-3.217,5.572-4.875l-1.293-1.492
		c-0.333-0.398-0.765-0.598-1.293-0.598c-0.397,0-1.312,0.58-2.736,1.74c-1.427,1.162-3.433,2.439-6.021,3.832
		c-2.586,1.393-5.805,2.67-9.65,3.83c-3.848,1.162-8.393,1.74-13.631,1.74c-5.905,0-11.262-1.043-16.068-3.135
		c-4.811-2.09-8.906-5.156-12.289-9.203c-3.383-4.045-6.004-9.055-7.861-15.023c-1.857-5.971-2.785-12.869-2.785-20.695
		c0-0.662,0-1.326,0-1.99c0-0.662,0.031-1.326,0.099-1.99h74.327c1.194,0,1.791-0.697,1.791-2.09c0-6.83-0.979-12.9-2.936-18.208
		C307.887,82.463,305.184,78.003,301.735,74.387z M236.961,104.586c0.598-5.572,1.873-10.647,3.832-15.225
		c1.955-4.577,4.526-8.49,7.711-11.741c3.184-3.249,6.979-5.771,11.393-7.562c4.41-1.791,9.402-2.687,14.975-2.687
		c4.709,0,9.088,0.831,13.135,2.488c4.045,1.659,7.545,4.08,10.496,7.264s5.273,7.082,6.965,11.691
		c1.692,4.611,2.539,9.869,2.539,15.771H236.961z"/>
	<path fill="#121423" d="M360.041,111.203c-0.731-0.564-1.561-1.012-2.488-1.344c0.529-0.332,1.045-0.682,1.541-1.045
		c0.498-0.363,1.011-0.812,1.543-1.346L407.7,64.983h-4.379c-0.994,0-1.808,0.167-2.437,0.498c-0.632,0.333-1.244,0.83-1.842,1.492
		l-43.681,39.503c-0.995,0.93-1.892,1.49-2.687,1.689c-0.797,0.199-1.56,0.299-2.289,0.299h-4.578v-89.25h-5.272v143.877h5.272
		v-50.943h4.18c1.99,0,3.447,0.197,4.378,0.596c0.929,0.398,1.956,1.162,3.084,2.289l46.068,46.467
		c0.53,0.664,1.078,1.096,1.643,1.293c0.562,0.199,1.176,0.299,1.84,0.299h4.479l-49.353-50.049
		C361.465,112.381,360.77,111.768,360.041,111.203z"/>
	<path fill="#121423" d="M64.605,22.239c-6.169,0-11.642,0.995-16.417,2.985c-4.776,1.99-8.806,4.776-12.089,8.358
		c-3.284,3.582-5.788,7.877-7.512,12.885C26.861,51.477,26,56.964,26,62.935v7.164H8.785v1.99c0,0.863,0.63,1.36,1.891,1.493
		L26,74.178v90.248h5.273V74.079h29.85v-3.98h-29.95v-7.164c0-5.572,0.762-10.629,2.289-15.173
		c1.525-4.543,3.731-8.408,6.617-11.592c2.885-3.184,6.433-5.637,10.646-7.363c4.211-1.724,9.005-2.587,14.378-2.587
		c3.582,0,7.445,0.149,11.591,0.448c4.145,0.298,7.911,0.482,11.293,0.547l0.796-3.582c-3.582-0.132-7.43-0.398-11.542-0.796
		C73.128,22.438,68.917,22.239,64.605,22.239z"/>
	<rect x="92.758" y="23.398" fill="#121423" width="5.473" height="139.896"/>
</g>
<rect x="-11.675" y="189.569" fill="none" width="1854.287" height="247.286"/>
<text transform="matrix(1 0 0 1 -11.6748 389.666)" font-family="'ProximaNova-Semibold'" font-size="300">RECYCLING</text>
</svg>
